<svg width="18" height="15" viewBox="0 0 18 15" fill="none" xmlns="http://www.w3.org/2000/svg">
<path id="Vector" d="M17.9486 7.26505L16.02 2.76505C15.9708 2.64885 15.8885 2.54971 15.7833 2.47998C15.6781 2.41025 15.5548 2.37301 15.4286 2.37291H13.5V1.08719C13.5 0.916697 13.4323 0.753184 13.3117 0.632625C13.1912 0.512065 13.0276 0.444336 12.8571 0.444336H0.642857C0.472361 0.444336 0.308848 0.512065 0.188288 0.632625C0.0677294 0.753184 0 0.916697 0 1.08719V12.0158C0 12.1863 0.0677294 12.3498 0.188288 12.4703C0.308848 12.5909 0.472361 12.6586 0.642857 12.6586H2.01857C2.16661 13.2034 2.48979 13.6842 2.93824 14.0271C3.38669 14.3699 3.9355 14.5557 4.5 14.5557C5.0645 14.5557 5.61331 14.3699 6.06176 14.0271C6.51021 13.6842 6.83339 13.2034 6.98143 12.6586H11.0186C11.1666 13.2034 11.4898 13.6842 11.9382 14.0271C12.3867 14.3699 12.9355 14.5557 13.5 14.5557C14.0645 14.5557 14.6133 14.3699 15.0618 14.0271C15.5102 13.6842 15.8334 13.2034 15.9814 12.6586H17.3571C17.5276 12.6586 17.6912 12.5909 17.8117 12.4703C17.9323 12.3498 18 12.1863 18 12.0158V7.51576C17.9998 7.42959 17.9823 7.34433 17.9486 7.26505ZM13.5 3.65862H15.0043L16.38 6.87291H13.5V3.65862ZM4.5 13.3015C4.24571 13.3015 3.99713 13.2261 3.7857 13.0848C3.57426 12.9435 3.40947 12.7427 3.31215 12.5078C3.21484 12.2729 3.18938 12.0143 3.23899 11.7649C3.2886 11.5155 3.41105 11.2864 3.59086 11.1066C3.77067 10.9268 3.99977 10.8044 4.24917 10.7548C4.49857 10.7051 4.75709 10.7306 4.99202 10.8279C5.22695 10.9252 5.42776 11.09 5.56903 11.3015C5.71031 11.5129 5.78571 11.7615 5.78571 12.0158C5.78571 12.3568 5.65026 12.6838 5.40914 12.9249C5.16802 13.166 4.84099 13.3015 4.5 13.3015ZM11.0186 11.3729H6.98143C6.83339 10.8282 6.51021 10.3473 6.06176 10.0044C5.61331 9.66159 5.0645 9.47584 4.5 9.47584C3.9355 9.47584 3.38669 9.66159 2.93824 10.0044C2.48979 10.3473 2.16661 10.8282 2.01857 11.3729H1.28571V1.73005H12.2143V9.80434C11.9216 9.97423 11.6652 10.2002 11.4601 10.4694C11.2549 10.7386 11.1048 11.0456 11.0186 11.3729ZM13.5 13.3015C13.2457 13.3015 12.9971 13.2261 12.7857 13.0848C12.5743 12.9435 12.4095 12.7427 12.3122 12.5078C12.2148 12.2729 12.1894 12.0143 12.239 11.7649C12.2886 11.5155 12.4111 11.2864 12.5909 11.1066C12.7707 10.9268 12.9998 10.8044 13.2492 10.7548C13.4986 10.7051 13.7571 10.7306 13.992 10.8279C14.227 10.9252 14.4278 11.09 14.569 11.3015C14.7103 11.5129 14.7857 11.7615 14.7857 12.0158C14.7857 12.3568 14.6503 12.6838 14.4091 12.9249C14.168 13.166 13.841 13.3015 13.5 13.3015ZM16.7143 11.3729H15.9814C15.8393 10.8223 15.5186 10.3344 15.0696 9.98542C14.6206 9.63647 14.0686 9.44618 13.5 9.44434V8.15862H16.7143V11.3729Z" fill="black"/>
</svg>
